<svg width="670" height="380" viewBox="0 0 670 380" fill="none" xmlns="http://www.w3.org/2000/svg"><path d="M349.454 319.001C400.107 319.001 441.169 316.472 441.169 313.352C441.169 310.232 400.107 307.703 349.454 307.703C298.8 307.703 257.738 310.232 257.738 313.352C257.738 316.472 298.8 319.001 349.454 319.001Z" fill="#E8E7E7"/><path d="M259.741 277.979C259.959 275.981 259.741 271.447 255.233 271.447C250.634 271.447 249.653 280.125 248.334 284.418C244.991 288.252 236.558 296.433 235.822 298.862C234.902 301.898 234.626 304.98 241.204 304.98C247.782 304.98 251.277 299.413 249.07 297.114C258.637 292.146 259.581 279.45 259.741 277.979Z" fill="#A464FF"/><path d="M243.517 292.22C248.735 290.059 250.443 282.219 247.332 274.708C244.222 267.198 237.472 262.86 232.255 265.021C227.037 267.181 225.329 275.021 228.44 282.532C231.55 290.043 238.3 294.38 243.517 292.22Z" fill="#A464FF"/><path d="M234.457 300.52C241.403 299.313 246.39 294.625 245.595 290.049C244.8 285.474 238.524 282.743 231.578 283.95C224.631 285.156 219.644 289.844 220.439 294.42C221.234 298.996 227.51 301.727 234.457 300.52Z" fill="#A464FF"/><path d="M248.977 284.667C248.553 290.611 246.43 296.641 236.834 299.783" stroke="#7F37E5" stroke-width="3.56834" stroke-linecap="round" stroke-linejoin="round"/><path d="M412.046 148.516C411.841 146.638 412.046 142.379 416.281 142.379C420.602 142.379 421.525 150.532 422.763 154.566C425.904 158.167 433.828 165.855 434.519 168.137C435.384 170.989 435.643 173.884 429.463 173.884C423.283 173.884 419.998 168.655 422.072 166.494C413.083 161.827 412.196 149.899 412.046 148.516Z" fill="#A464FF"/><path d="M427.286 161.893C422.384 159.864 420.779 152.497 423.701 145.44C426.624 138.383 432.966 134.308 437.868 136.338C442.77 138.368 444.375 145.734 441.452 152.791C438.53 159.848 432.188 163.923 427.286 161.893Z" fill="#A464FF"/><path d="M435.796 169.694C429.269 168.56 424.584 164.155 425.331 159.856C426.078 155.557 431.974 152.991 438.501 154.125C445.028 155.259 449.713 159.663 448.966 163.963C448.219 168.262 442.323 170.828 435.796 169.694Z" fill="#A464FF"/><path d="M422.161 154.798C422.56 160.383 424.555 166.048 433.57 169" stroke="#7F37E5" stroke-width="3.3527" stroke-linecap="round" stroke-linejoin="round"/><path d="M323.514 75.5299C323.514 72.8766 323.893 67.7597 328.442 67.7597C332.005 67.7597 334.601 74.1401 335.454 77.3303C336.907 70.8551 342.257 58.3597 352.036 60.179C361.816 61.9984 352.51 80.0151 346.635 88.7961C350.583 88.038 358.044 88.417 356.301 95.9977C354.121 105.474 342.466 103.105 339.054 98.2719C339.56 99.4722 337.444 101.873 334.885 101.873C329.2 101.873 329.105 93.2497 330.811 90.8807C325.788 84.7214 323.514 78.1831 323.514 75.5299Z" fill="#A464FF"/><path d="M334.316 78.9395C334.316 86.5202 336.117 93.1533 338.771 97.4174" stroke="#7F37E5" stroke-width="3.67547" stroke-linecap="round" stroke-linejoin="round"/><path d="M264.042 123.383C264.042 126.375 262.786 129.044 260.822 130.785C263.598 133.67 263.886 138.141 261.357 141.151C258.75 144.254 254.099 144.676 250.751 142.197C250.695 145.313 247.886 148.705 243.629 150.415C238.47 152.489 233.137 151.309 231.718 147.779C230.53 144.822 232.466 141.154 236.159 138.822C235.488 138.447 234.837 138.001 234.221 137.482C229.64 133.633 228.639 127.286 231.984 123.304C235.33 119.322 241.756 119.214 246.336 123.063C246.487 123.19 246.634 123.319 246.778 123.451C246.778 123.429 246.777 123.406 246.777 123.383C246.777 118.136 250.642 113.882 255.41 113.882C260.177 113.882 264.042 118.136 264.042 123.383Z" fill="#A464FF"/><path d="M343.922 293.587L332.186 295.546C327.397 296.346 324.162 300.877 324.962 305.666L324.962 305.666C325.761 310.455 330.292 313.69 335.081 312.89L346.818 310.931C351.607 310.132 354.842 305.601 354.042 300.812L354.042 300.812C353.242 296.022 348.712 292.788 343.922 293.587Z" fill="#F49000"/><path d="M376.959 142.117C368.861 128.684 343.315 132.243 334.069 144.913C325.447 156.729 319.49 168.265 312.939 172.215C306.387 176.165 293.626 175.742 279.152 177.851C263.631 180.113 254.716 197.5 262.814 210.934L298.956 270.882C317.959 302.402 358.917 312.549 390.437 293.545C421.957 274.542 432.104 233.585 413.101 202.065L376.959 142.117Z" fill="#58CC02"/><path d="M363.384 255.124L349.017 263.779C348.247 264.242 348.131 265.284 348.788 265.836C351.945 268.487 356.661 268.79 360.457 266.504C364.252 264.217 366.185 259.909 365.312 255.882C365.131 255.044 364.155 254.66 363.384 255.124Z" fill="#8EE000"/><path d="M338.315 270.236L323.947 278.891C323.177 279.355 323.061 280.397 323.718 280.948C326.876 283.599 331.591 283.903 335.386 281.616C339.182 279.329 341.115 275.021 340.242 270.994C340.06 270.156 339.085 269.772 338.315 270.236Z" fill="#8EE000"/><path d="M358.16 274.804L343.793 283.458C343.023 283.922 342.907 284.964 343.564 285.516C346.721 288.166 351.436 288.47 355.232 286.184C359.028 283.897 360.96 279.589 360.088 275.561C359.906 274.723 358.93 274.34 358.16 274.804Z" fill="#8EE000"/><path fill-rule="evenodd" clip-rule="evenodd" d="M314.784 190.779C314 199.938 305.843 204.856 296.85 201.591C287.857 198.326 316.072 240.536 316.005 240.424C315.972 240.371 322.639 236.387 328.16 233.089C329.64 232.205 332.309 230.617 336.167 228.324C322.435 197.187 315.308 184.672 314.784 190.779Z" fill="#89E219"/><path d="M277.29 190.41L303.051 204.887C304.431 205.663 304.659 207.559 303.498 208.632C297.927 213.785 289.534 214.79 282.729 210.965C275.923 207.141 272.396 199.438 273.871 191.982C274.178 190.43 275.909 189.634 277.29 190.41Z" fill="#8EE000"/><path d="M270.593 200.752L297.581 212.786C299.027 213.431 299.428 215.299 298.373 216.474C293.302 222.12 285.038 223.896 277.907 220.717C270.777 217.537 266.554 210.193 267.334 202.633C267.496 201.059 269.146 200.107 270.593 200.752Z" fill="#8EE000"/><path d="M319.286 165.517L314.006 193.824C313.723 195.341 314.999 196.687 316.526 196.482C323.86 195.495 329.856 189.818 331.251 182.34C332.646 174.861 329.093 167.439 322.598 163.925C321.247 163.193 319.569 163.999 319.286 165.517Z" fill="#89E219"/><path d="M259.029 302.109C255.163 298.631 281.41 277.735 292.729 256.08L320.557 288.772C289.828 315.433 263.909 306.501 259.029 302.109Z" fill="#58CC02"/><path d="M332.066 164.025L327.099 190.655C326.833 192.082 328.033 193.348 329.469 193.155C336.368 192.227 342.01 186.887 343.322 179.852C344.634 172.816 341.291 165.834 335.182 162.528C333.91 161.84 332.333 162.598 332.066 164.025Z" fill="#89E219"/><path d="M368.248 183.762C359.864 169.854 341.791 165.377 327.883 173.762C313.975 182.147 309.498 200.219 317.883 214.127L321.927 220.834C330.311 234.742 348.384 239.219 362.291 230.834C376.2 222.449 380.677 204.377 372.292 190.469L368.248 183.762Z" fill="#89E219"/><path d="M324.983 208.245C319.631 199.369 322.489 187.835 331.365 182.484C340.241 177.132 351.775 179.99 357.127 188.866L362.353 197.536C367.705 206.412 364.847 217.946 355.971 223.297C347.095 228.649 335.561 225.791 330.21 216.915L324.983 208.245Z" fill="white"/><path d="M268.231 220.084C267.87 214.178 270.725 208.278 276.143 205.011C283.909 200.329 293.998 202.829 298.679 210.594L313.995 235.998C318.677 243.763 316.177 253.852 308.412 258.534C302.993 261.801 296.443 261.571 291.388 258.494L268.231 220.084Z" fill="#89E219"/><path d="M282.897 211.773L282.897 211.773C288.815 208.205 296.505 210.11 300.073 216.028L311.758 235.411C315.326 241.329 313.421 249.019 307.503 252.586L307.503 252.587C301.585 256.154 293.895 254.249 290.327 248.331L278.642 228.949C275.074 223.031 276.979 215.341 282.897 211.773Z" fill="white"/><path d="M302.723 220.489C300.021 216.006 294.196 214.563 289.713 217.266C285.23 219.968 283.787 225.793 286.489 230.277L295.124 244.598C297.827 249.081 303.651 250.524 308.134 247.821C312.617 245.118 314.06 239.294 311.357 234.811L302.723 220.489Z" fill="#4B4B4B"/><path fill-rule="evenodd" clip-rule="evenodd" d="M331.735 191.043C338.697 186.845 347.744 189.086 351.942 196.049L356.082 202.916C360.28 209.879 358.038 218.926 351.076 223.123C344.114 227.321 335.067 225.079 330.869 218.117L326.729 211.249C322.531 204.286 324.773 195.24 331.735 191.043ZM333.261 207.083C336.383 207.083 338.915 204.551 338.915 201.429C338.915 198.306 336.383 195.775 333.261 195.775C330.138 195.775 327.607 198.306 327.607 201.429C327.607 204.551 330.138 207.083 333.261 207.083Z" fill="#4B4B4B"/><path d="M347.604 210.255C350.706 210.255 353.22 207.741 353.22 204.639C353.22 201.538 350.706 199.023 347.604 199.023C344.503 199.023 341.988 201.538 341.988 204.639C341.988 207.741 344.503 210.255 347.604 210.255Z" fill="white"/><path d="M335.698 227.479C336.511 206.188 354.227 195.136 369.179 196.598V211.226L358.127 227.479C353.684 228.346 342.979 229.56 335.698 227.479Z" fill="#89E219"/><path d="M371.926 232.039C365.967 249.914 355.291 285.665 360.252 285.665C366.454 285.665 394.179 283.111 406.217 244.442" stroke="#2FB500" stroke-width="4.13854" stroke-linecap="round" stroke-linejoin="round"/><path d="M293.347 230.362C295.163 229.437 295.75 226.949 294.658 224.805C293.566 222.661 291.208 221.673 289.392 222.599C287.575 223.524 286.988 226.012 288.08 228.156C289.172 230.299 291.53 231.287 293.347 230.362Z" fill="white"/><path d="M304.353 236.633C306.236 235.674 306.953 233.306 305.954 231.345C304.954 229.383 302.618 228.571 300.735 229.53C298.852 230.489 298.135 232.857 299.134 234.819C300.134 236.78 302.47 237.592 304.353 236.633Z" fill="white"/><path d="M364.902 298.067L373.195 296.342C378.447 295.25 383.59 298.622 384.682 303.874L384.682 303.874C385.775 309.126 382.403 314.269 377.151 315.361L368.857 317.086C363.605 318.178 358.462 314.806 357.37 309.554L357.37 309.554C356.278 304.302 359.65 299.159 364.902 298.067Z" fill="#F49000"/><path d="M316.676 237.718C304.486 229.591 289.864 231 284.494 245.032L293.108 258.522L308.241 257.125C311 253.538 315.285 245.163 316.676 237.718Z" fill="#89E219"/><path d="M314.835 238.228C312.238 233.921 313.625 228.325 317.931 225.729C322.238 223.132 327.834 224.519 330.43 228.825L332.031 231.48C334.627 235.786 333.241 241.382 328.934 243.979C324.627 246.575 319.032 245.189 316.435 240.882L314.835 238.228Z" fill="#F49000"/><path d="M312.689 240.178C312.785 240.462 313.044 240.658 313.342 240.684L317.95 241.087C317.95 241.087 329.884 234.354 330.39 226.905C330.41 226.609 330.236 226.336 329.967 226.211C324.277 223.567 320.442 224.203 317.785 225.805C312.346 229.083 310.754 234.451 312.689 240.178Z" fill="#FFC200"/><path d="M321.755 227.942C320.82 228.069 318.641 229.071 317.441 230.543" stroke="#FFDE00" stroke-width="4.69643" stroke-linecap="round" stroke-linejoin="round"/><path d="M247.965 125.245C250.359 129.195 250.559 137.564 250.359 141.254" stroke="#7F37E5" stroke-width="3.67547" stroke-linecap="round" stroke-linejoin="round"/></svg>